<svg width="111" height="312" viewBox="0 0 111 312" fill="none" xmlns="http://www.w3.org/2000/svg">
<path d="M59 216C56.1667 214.167 50.3 210.3 49.5 209.5C48.5 208.5 46 205.5 45.5 203C45 200.5 44 198 44.5 194C45 190 46.5001 185 49.5 181.5C52.5 178 53.5 177 55.5 175.5C57.1 174.3 60.8333 172.667 62.5 172C64 171.667 67.3 171 68.5 171C70 171 73.5 171 76.5 172C79.5 173 82.5 173.5 86 176.5C89.5 179.5 92 182.5 93.5 185C95 187.5 96 189.5 96.5 192C97 194.5 97.5 195 97.5 198C97.5 200.4 97.5 203 97.5 204C97.3333 205.667 96.8 209.5 96 211.5C95 214 93 219.5 89 223C85 226.5 83.5 228 80.5 229.5C77.5 231 73.5 232 70 232.5C66.5 233 63 233.5 60 233.5C57 233.5 51.5 233 47.5 232C43.5 231 40.5 230 37.5 228.5C34.5 227 31.5 225 31 224.5C30.5 224 27.5 221.5 26 220C24.5 218.5 21 214.5 19.5 212C18 209.5 15.5 204.5 15 202C14.5 199.5 14.5 200.5 14 197C13.5 193.5 13.5 191.5 13.5 188C13.5 184.5 14 183 14.5 179.5C14.9 176.7 16.6667 171.333 17.5 169C18.5 166.833 20.8 162 22 160C23.5 157.5 26.5 153 28.5 150.5C30.5 148 34.5 143 37.5 140C40.5 137 43.5 134.5 46 132C48 130 51.8333 126.5 53.5 125L58.5 120.5C60.1667 118.667 64 114.4 66 112C68.5 109 72.5 103.5 73.5 101.5C74.5 99.5 75.5 98.5 77.5 94.5C79.5 90.5 80 89.5 81.5 85.5C83 81.5 84 79.5 85 74.5C86 69.5 86.5 69 87 63.5C87.5 58 87.5 51.5 87.5 49C87.5 46.5 86.5 40 85.5 35.5C84.7 31.9 82.1667 24 81 20.5C79.8333 17.6667 77.3 11.6 76.5 10C75.5 8 71.5 3 71 2.5C70.5 2 70 1 68 1C66 1 65.5 1.5 64 2.5C62.5 3.5 60.5 5 58.5 7C56.5 9 54.5 12 53 15C51.5 18 51 19 49 24C47 29 46.5 30.5 46 33C45.5 35.5 45 37.5 44 41.5C43.2 44.7 43 46.5 43 47C42.8333 48 42.5 50.5 42.5 52.5C42.5 54.5 42.5 59.6667 42.5 62C42.8333 65 43.5 71.5 43.5 73.5C43.5 76 45 85 45.5 87.5C45.9 89.5 47 94.3333 47.5 96.5L83 272C83.1667 274.333 83.4 279.7 83 282.5C82.5 286 82 289.5 80 292.5C78 295.5 77 297 74.5 299C72 301 71 302 67 303.5C63 305 63.5 305.5 58.5 305.5C53.5 305.5 52.5 305.5 49 304.5C45.5 303.5 43.5 301.5 43 300.5C42.6 299.7 42.1667 298.167 42 297.5C42.6667 297.667 44.3 298 45.5 298C47 298 49.5 297.5 51 296.5C52.5 295.5 53.5 295 54.5 294C55.5 293 57 292 58 290.5C59 289 60 286.5 60 285.5C60 284.7 60 281.833 60 280.5C60 279.833 59.9 278.1 59.5 276.5C59 274.5 58.5 273 57.5 271.5C56.5 270 55 268 54.5 267.5C54 267 51.5 265.5 50.5 265C49.7 264.6 48.8333 264.167 48.5 264C47.8333 263.833 46.3 263.5 45.5 263.5C44.7 263.5 42.1667 263.5 41 263.5C39.8333 263.667 37.3 264.1 36.5 264.5C35.5 265 34 266 33 267C32 268 30 270 29 271.5C28 273 27 275 26.5 276.5C26 278 25 279.5 25 281.5C25 283.5 24.5 285.5 25 288C25.5 290.5 26.5 293 27.5 295C28.5 297 29.5 299 31 300.5C32.5 302 35 304.5 36.5 305.5C38 306.5 40.5 308 43 309C45.5 310 48 310.5 50.5 311C53 311.5 53.5 311.5 55 311.5C56.2 311.5 59.5 311.167 61 311C62.1667 310.833 65.1 310.3 67.5 309.5C70.5 308.5 72.5 308 74 307C75.5 306 78 304.5 80 302.5C82 300.5 85 296 86 294C87 292 89 286.5 89 284.5C89 282.5 89 279.5 89 276.5C89 273.5 89 273 88.5 271C88.1 269.4 63.6667 147.667 51.5 87C51.3333 85.8333 50.9 82.8 50.5 80C50.1 77.2 50 72.1667 50 70C50 68.5 50.1 64.6 50.5 61C50.9 57.4 53 49.5 54 46C55 43.1667 57.6 36.9 60 34.5C63 31.5 67 28.5 69 28C71 27.5 73 27.5 74 28C75 28.5 77.4516 30 78.7258 33C80 36 80.5 38.5 80.5 40C80.5 41.5 80 45 79.5 47.5C79 50 78.5 54.5 77 58C75.5 61.5 72.5 67.5 70 71.5C67.5 75.5 63.5 81 60.5 84C57.5 87 27 118 24 121.5C21 125 11.5 138 10 141C8.5 144 4.5 152 3.5 156C2.5 160 0.5 169.5 0.5 174C0.5 178.5 0.5 183.5 1.5 188C2.5 192.5 5.5 202 7.5 205.5C9.5 209 9.5 210 11.5 213C13.5 216 20 223.5 23 226C26 228.5 33 233.5 37 235C41 236.5 46 238.5 51 239C56 239.5 59.5 240 65 239.5C70.5 239 79.5 236 84 233.5C88.5 231 94 227.5 97 224C100 220.5 105 213.5 106 211.5C107 209.5 109 203.5 109.5 200C110 196.5 110.5 191.5 109.5 186.5C108.5 181.5 107 175 105 171C103 167 98.5 161.5 95 158.5C91.5 155.5 88.5 153.5 84 152C79.5 150.5 77.5 150 72 150C66.5 150 60.5 151 56 153C51.5 155 48.5 157.5 45 161C41.5 164.5 39.5 167.5 38 171C36.5 174.5 35.5 176.5 34.5 181.5C33.5 186.5 34 191.5 34.5 193.5C35 195.5 35.5 198.5 37.5 202C39.5 205.5 41.5 209 44 211C46.5 213 47.5 214 50 215.5C52 216.7 55.1667 218.333 56.5 219C56.8333 219.167 57.7 219.4 58.5 219C59.5 218.5 59.5 217.5 59.5 217C59.5 216.6 59.1667 216.167 59 216Z" stroke="black"/>
</svg>
