<svg width="155" height="323" viewBox="0 0 155 323" fill="none" xmlns="http://www.w3.org/2000/svg">
<path d="M67.4148 1C66.9228 1.32901 65.8812 1.8611 64.955 2.48053C63.4791 3.46754 57.0836 4.37448 57.0836 5.93509C57.0836 7.41561 58.0675 6.4286 58.0675 8.89614C58.0675 10.8702 55.6077 11.8572 54.6238 12.3507L50.6881 12.8442L48.2283 15.8053L45.2765 12.8442C43.8006 12.8442 40.6521 13.239 39.865 14.8182C39.0778 16.3975 39.537 18.1083 39.865 18.7663L37.8971 19.7533L33.9614 13.8312C33.3055 13.8312 31.8952 14.0286 31.5016 14.8182C31.108 15.6079 30.3537 17.1213 30.0257 17.7793L28.0579 13.8312C27.074 13.8312 25.0077 14.0286 24.6141 14.8182C24.1222 15.8053 22.6463 20.7403 19.6945 20.7403C16.7428 20.7403 16.7428 18.7663 16.2508 17.7793C15.8572 16.9897 11.8232 14.8182 9.85531 13.8312C8.37942 14.8182 5.23087 17.1871 4.44373 18.7663C3.65659 20.3455 1.81994 22.0564 1 22.7144L3.45981 27.156C4.93569 27.485 7.98585 28.6365 8.37942 30.6105C8.87138 33.0781 9.85531 33.5716 10.8392 33.5716C11.8232 33.5716 10.8392 39.0002 12.8071 39.4937C14.7749 39.9872 14.283 39.9872 15.2669 36.0391C16.054 32.8807 16.2508 36.3681 16.2508 38.5067H18.2186C18.7106 39.4937 18.2186 41.4677 16.2508 43.9353C14.283 45.5145 17.7267 43.9353 16.7428 44.9223C16.4148 45.7448 15.6605 47.4885 15.2669 47.8833C14.7749 48.3768 20.1865 53.3119 20.1865 54.2989C20.1865 55.286 23.1383 57.7535 23.6302 57.7535C24.0238 57.7535 26.09 58.4115 27.074 58.7405C27.7299 58.576 29.1402 58.3457 29.5338 58.7405C29.9273 59.1353 30.6817 59.563 31.0096 59.7275L31.9936 60.221L33.9614 61.2081H34.4534C34.7814 61.2081 35.4373 60.8133 35.4373 59.234C35.4373 57.6548 38.0611 56.273 39.373 55.7795C40.3569 55.4505 42.6199 54.8911 43.8006 55.286C44.9814 55.6808 48.5563 58.0825 50.1961 59.234C51.1801 59.7275 53.1479 60.912 53.1479 61.7016C53.1479 62.6886 48.7203 65.6496 48.2283 65.6496C47.7363 65.6496 46.7524 66.1431 47.2444 66.6367C47.6379 67.0315 48.3923 67.1302 48.7203 67.1302H53.1479C53.6399 67.4592 54.5254 68.2159 54.1318 68.6107C53.6399 69.1042 54.6238 71.5717 55.1158 71.5717C55.5093 71.5717 57.2476 71.5717 58.0675 71.5717C58.3955 71.5717 59.1498 71.6704 59.5434 72.0653C60.0354 72.5588 60.5273 75.5198 60.0354 75.5198C59.5434 75.5198 57.0836 77.0003 57.0836 77.4938C57.0836 77.9874 56.5916 78.9744 57.0836 78.9744C57.4772 78.9744 57.5756 79.3034 57.5756 79.4679C57.4116 79.9614 56.9852 80.9484 56.5916 80.9484C56.0997 80.9484 54.1318 81.9354 54.1318 82.4289C54.1318 82.8237 54.1318 83.9095 54.1318 84.403C53.9678 84.5675 53.4431 84.8965 52.6559 84.8965C51.8688 84.8965 50.3601 84.8965 49.7042 84.8965C49.3762 84.5675 48.7203 83.8108 48.7203 83.416C48.7203 83.0211 47.7363 82.9224 47.2444 82.9224C46.2605 82.9224 44.2926 83.0211 44.2926 83.416C44.2926 83.9095 42.3248 83.416 41.8328 83.416C41.3408 83.416 40.8489 84.403 41.3408 84.403C41.7344 84.403 41.8328 85.719 41.8328 86.377V87.8575C41.6688 88.1865 41.2424 88.8445 40.8489 88.8445C40.4553 88.8445 38.717 90.1606 37.8971 90.8186C37.7331 91.1476 37.5035 91.8056 37.8971 91.8056C38.2907 91.8056 39.701 92.7926 40.3569 93.2861H43.8006C44.4566 93.6151 45.6701 94.3718 45.2765 94.7667C44.883 95.1615 45.4405 95.9182 45.7685 96.2472L47.7363 96.7407C48.2283 97.0697 49.2122 97.8264 49.2122 98.2212C49.2122 98.7147 50.6881 99.2082 51.1801 99.2082C51.5736 99.2082 52 99.8662 52.164 100.195L55.6077 102.663C56.2637 102.827 57.7723 103.156 58.5595 103.156C59.3466 103.156 59.5434 103.485 59.5434 103.65C60.5273 104.143 62.5936 105.032 62.9871 104.637C63.3807 104.242 64.135 105.13 64.463 105.624C64.627 106.117 64.8566 107.104 64.463 107.104C64.0695 107.104 63.6431 108.091 63.4791 108.585C63.3151 109.243 63.0855 110.658 63.4791 111.052C63.9711 111.546 63.9711 112.533 64.955 113.026C65.9389 113.52 67.4148 114.013 67.4148 114.507C67.4148 115.001 67.9068 116.481 68.3987 116.481C68.7923 116.481 69.5466 116.481 69.8746 116.481L70.8585 115.988C72.0064 117.304 74.2039 120.034 73.8103 120.429C73.3183 120.923 74.3023 121.91 73.8103 122.897C73.4167 123.686 74.3023 123.884 74.7942 123.884C77.91 127.832 84.2399 135.629 84.6334 135.234C85.1254 134.741 90.537 138.195 90.045 139.676C89.6514 140.86 90.537 141.814 91.0289 142.143C92.0129 142.637 93.8823 143.723 93.4887 144.118C92.9968 144.611 93.4887 149.053 93.4887 150.04C93.4887 151.027 95.9486 151.027 95.9486 152.014C95.9486 153.001 96.4405 154.975 96.9325 154.975C97.326 154.975 97.7524 154.646 97.9164 154.481C98.5723 153.494 99.8842 151.619 99.8842 152.014C99.8842 152.507 100.376 152.014 100.376 152.507C100.376 153.001 100.868 156.455 101.36 156.455C101.754 156.455 103.492 156.455 104.312 156.455C104.64 156.62 105.296 157.047 105.296 157.442C105.296 157.936 105.296 160.403 105.788 160.403C106.28 160.403 108.74 162.377 108.74 162.871C108.74 163.266 110.707 163.035 111.691 162.871C112.019 163.035 112.675 163.463 112.675 163.858C112.675 164.253 112.019 165.009 111.691 165.338C109.723 166.49 106.083 168.892 107.264 169.286C108.74 169.78 109.723 173.728 110.215 173.728C110.707 173.728 116.611 178.17 116.611 179.157C116.611 179.946 116.611 180.802 116.611 181.131C116.119 182.282 115.037 184.585 114.643 184.585C114.151 184.585 113.167 184.585 113.167 185.079C113.167 185.474 113.167 185.901 113.167 186.066C113.167 186.395 113.266 187.053 113.659 187.053C114.151 187.053 114.643 187.546 114.643 188.04C114.643 188.435 114.643 188.862 114.643 189.027C114.151 189.356 113.266 190.014 113.659 190.014C114.053 190.014 113.823 190.672 113.659 191.001V196.923C112.511 199.061 110.215 203.437 110.215 203.832C110.215 204.227 110.215 204.984 110.215 205.313C110.871 206.135 112.183 207.879 112.183 208.274C112.183 208.767 112.675 211.235 112.183 211.235C111.691 211.235 114.643 213.209 114.151 213.209C113.758 213.209 113.987 214.525 114.151 215.183C114.643 216.005 115.627 217.749 115.627 218.144C115.627 218.539 115.627 219.953 115.627 220.611C115.135 221.598 114.151 223.671 114.151 224.066C114.151 224.559 113.167 226.04 113.167 226.533C113.167 226.928 113.167 228.672 113.167 229.495C113.495 230.317 114.151 232.061 114.151 232.456C114.151 232.949 114.643 241.339 114.151 241.339C113.659 241.339 112.675 245.78 111.691 244.3C110.707 242.819 110.215 242.326 109.723 242.326C109.33 242.326 108.576 242.326 108.248 242.326C106.444 244.135 102.738 247.754 102.344 247.754C101.852 247.754 97.9164 248.248 97.9164 248.741C97.9164 249.235 96.9325 250.715 96.4405 250.715C96.0469 250.715 94.9646 250.057 94.4727 249.728C93.6527 249.728 91.9145 249.827 91.5209 250.222C91.1273 250.617 91.0289 251.702 91.0289 252.196L90.045 253.676L90.537 254.663L91.0289 256.144H86.6013C85.6174 255.486 83.5511 254.17 83.1576 254.17C82.764 254.17 82.0096 254.499 81.6817 254.663V256.144C81.3537 256.638 80.501 257.427 79.7138 256.638C78.9267 255.848 78.7299 256.967 78.7299 257.625L79.2219 259.599V264.534C79.3859 265.027 80.2058 266.31 82.1736 267.495C84.6334 268.975 84.6334 268.482 85.1254 268.975C85.6174 269.469 86.1093 270.456 85.6174 270.949C85.1254 271.443 84.6334 272.43 85.1254 272.923C85.6174 273.417 86.1093 274.897 85.1254 274.897C84.1415 274.897 84.1415 274.897 83.1576 274.404C82.1736 273.91 81.1897 272.923 80.6977 273.417C80.2058 273.91 80.2058 273.91 79.7138 273.91C79.2219 273.91 78.2379 272.923 78.2379 270.949C78.2379 269.37 76.2701 269.962 75.2862 270.456C75.1222 270.949 74.6958 271.936 74.3023 271.936C73.8103 271.936 71.3505 271.936 70.8585 271.443C70.465 271.048 69.0547 272.594 68.3987 273.417C67.7428 273.581 66.3325 273.713 65.9389 272.923C65.4469 271.936 62.0032 271.936 61.5113 272.923C61.1177 273.713 61.6752 274.568 62.0032 274.897C62.3312 275.391 62.7904 276.477 62.0032 276.871C61.0193 277.365 60.5273 279.832 57.5756 280.819C54.6238 281.806 55.6077 278.352 52.164 281.313C49.409 283.682 49.3762 283.616 49.7042 283.287L52.164 286.742V289.209C52.8199 288.88 54.2302 288.123 54.6238 287.729C55.1158 287.235 56.5916 286.742 57.0836 287.729C57.5756 288.716 58.0675 290.196 58.5595 290.196C59.0514 290.196 60.5273 289.209 61.5113 290.196C62.4952 291.183 62.9871 292.17 62.9871 292.664C62.9871 293.157 62.9871 293.157 61.5113 293.651C60.0354 294.144 59.5434 295.625 59.0514 296.118C58.5595 296.612 58.0675 297.599 58.0675 298.092C58.0675 298.586 58.0675 303.521 57.5756 304.508C57.182 305.297 57.0836 311.417 57.0836 314.378C56.5916 315.53 55.7061 317.833 56.0997 317.833C56.4932 317.833 57.9035 317.504 58.5595 317.339C58.5595 317.833 58.4611 318.82 58.0675 318.82C57.674 318.82 56.9196 319.807 56.5916 320.3C55.7717 320.794 54.427 321.781 55.6077 321.781C57.0836 321.781 57.0836 322.274 59.0514 321.781C61.0193 321.287 62.4952 321.287 62.9871 320.794C63.4791 320.3 66.9228 317.833 67.4148 317.339C67.9068 316.846 69.8746 312.404 70.3666 311.91C70.8585 311.417 76.7621 307.962 77.254 307.962C77.746 307.962 82.1736 307.469 82.6656 306.975C83.1576 306.482 85.6174 304.508 86.1093 303.521C86.6013 302.534 87.5852 300.56 88.0772 300.56C88.4707 300.56 88.8971 300.56 89.0611 300.56L90.045 301.053H92.0129C92.6688 300.724 93.9807 299.968 93.9807 299.573C93.9807 299.079 93.9807 298.092 93.9807 297.599C93.9807 297.105 92.5048 296.612 92.5048 296.118C92.5048 295.723 92.8328 295.625 92.9968 295.625L94.4727 296.118L95.4566 295.625L95.9486 295.131C96.1125 294.802 96.3421 294.045 95.9486 293.651C95.4566 293.157 95.4566 293.157 94.9646 293.157C94.4727 293.157 93.9807 293.157 93.9807 292.664C93.9807 292.269 94.6367 291.841 94.9646 291.677C95.2926 291.677 95.9486 291.578 95.9486 291.183C95.9486 290.69 95.9486 290.196 96.4405 290.196C96.9325 290.196 96.9325 290.69 97.4244 290.196C97.818 289.801 97.9164 289.374 97.9164 289.209V288.716C97.5884 288.551 96.9325 288.123 96.9325 287.729C96.9325 287.334 97.5884 287.235 97.9164 287.235H98.4084L97.9164 285.755V283.78C97.7524 283.122 97.5228 281.905 97.9164 282.3C98.4084 282.793 99.3923 282.793 99.8842 283.287C100.278 283.682 100.704 283.78 100.868 283.78H101.852L102.344 281.806H103.328L104.804 282.3L104.312 284.274C104.312 284.768 104.41 285.557 104.804 284.768C105.197 283.978 105.624 283.451 105.788 283.287C106.116 283.122 106.87 282.892 107.264 283.287C107.756 283.78 107.264 283.78 107.756 283.78C108.149 283.78 108.576 283.78 108.74 283.78L109.232 282.793C109.559 282.629 110.314 282.3 110.707 282.3C111.199 282.3 112.183 282.3 112.675 281.806C113.167 281.313 115.627 278.845 116.119 278.845C116.611 278.845 117.595 278.845 118.579 278.352C119.563 277.858 120.055 276.871 120.547 276.871C121.039 276.871 122.023 276.871 122.514 276.871C122.908 276.871 123.334 276.542 123.498 276.378C123.662 276.049 123.99 275.292 123.99 274.897C123.99 274.404 124.974 272.923 125.466 272.923C125.86 272.923 128.254 272.265 129.402 271.936C129.566 271.607 129.992 270.949 130.386 270.949C130.779 270.949 131.862 270.62 132.354 270.456C132.846 270.127 133.83 269.37 133.83 268.975C133.83 268.482 134.814 267.001 135.305 267.001C135.699 267.001 137.437 267.001 138.257 267.001C138.749 266.672 139.733 265.817 139.733 265.027C139.733 264.238 140.717 264.04 141.209 264.04H143.669C144.161 264.04 145.145 263.645 145.145 262.066C145.145 260.487 145.473 259.434 145.637 259.105C145.801 258.941 146.227 258.612 146.621 258.612C147.014 258.612 147.768 258.283 148.096 258.118L149.08 256.144C149.08 255.65 148.982 254.565 148.588 254.17C148.096 253.676 146.621 252.689 147.113 252.196C147.506 251.801 147.932 251.702 148.096 251.702L149.08 252.196L149.572 252.689C149.736 252.36 150.064 251.604 150.064 251.209C150.064 250.715 150.556 249.728 150.064 249.235C149.572 248.741 149.08 247.754 149.572 247.261C149.966 246.866 150.392 246.438 150.556 246.274C150.72 245.945 150.95 245.287 150.556 245.287C150.064 245.287 149.08 244.793 149.08 244.3C149.08 243.905 149.08 243.477 149.08 243.313V242.326C149.08 241.997 149.179 241.437 149.572 241.832C149.966 242.227 150.392 242.326 150.556 242.326C150.72 242.326 151.048 242.128 151.048 241.339C151.048 240.549 149.736 238.049 149.08 236.897C149.244 236.075 149.671 234.43 150.064 234.43C150.556 234.43 154 231.962 154 230.482C154 229.001 151.048 226.04 151.048 225.546C151.048 225.152 151.048 223.408 151.048 222.585C150.884 222.092 150.458 221.006 150.064 220.611C149.572 220.118 148.588 218.144 149.572 218.637C150.359 219.032 150.884 219.131 151.048 219.131C151.212 219.131 151.54 219.032 151.54 218.637C151.54 218.144 149.572 215.183 149.572 214.689C149.572 214.294 149.572 213.209 149.572 212.715C149.572 212.386 149.671 211.728 150.064 211.728C150.458 211.728 150.884 211.728 151.048 211.728C151.048 211.564 151.048 211.136 151.048 210.741C151.048 210.248 150.064 207.78 150.064 206.793C150.064 205.806 149.572 205.806 149.572 204.819C149.572 204.029 148.916 202.516 148.588 201.858C148.096 200.542 147.113 197.713 147.113 196.923C147.113 195.936 146.129 192.975 145.637 191.988C145.145 191.001 142.685 185.079 142.685 183.598C142.685 182.118 143.177 178.663 142.193 178.17C141.209 177.676 138.257 175.702 137.765 175.209C137.273 174.715 134.814 172.248 134.322 171.261C133.83 170.273 132.354 167.312 131.37 166.819C130.386 166.325 128.418 163.364 128.91 162.871C129.402 162.377 130.386 161.884 129.894 161.39C129.402 160.897 129.402 159.91 128.91 160.403C128.516 160.798 128.418 161.555 128.418 161.884C128.254 162.048 127.828 162.279 127.434 161.884C127.041 161.489 127.27 160.732 127.434 160.403C127.762 160.074 128.32 159.416 127.926 159.416C127.532 159.416 126.45 159.416 125.958 159.416C125.63 159.416 124.974 159.219 124.974 158.429C124.974 157.442 125.466 156.949 124.974 156.949C124.482 156.949 123.498 156.949 123.006 156.949C122.514 156.949 121.039 157.936 120.547 157.442C120.055 156.949 119.071 156.949 119.563 156.455C119.956 156.06 120.711 156.291 121.039 156.455L119.563 154.481L113.659 150.04C112.839 149.546 111.003 148.263 110.215 147.079C109.232 145.598 106.28 144.118 105.788 142.637C105.296 141.156 103.82 139.182 101.852 137.702C99.8842 136.221 97.9164 134.741 96.9325 133.26C95.9486 131.78 93.9807 130.299 92.9968 127.832C92.0129 125.364 90.537 123.39 91.5209 123.39C92.308 123.39 92.5048 122.732 92.5048 122.403C92.5048 122.074 92.4064 121.317 92.0129 120.923C91.5209 120.429 88.0772 116.481 87.0932 115.988C86.1093 115.494 84.6334 115.001 83.6495 114.013C82.6656 113.026 80.2058 112.039 79.7138 110.065C79.3203 108.486 78.2379 106.117 77.746 105.13C77.254 104.143 76.0733 101.972 75.2862 101.182C74.3023 100.195 73.8103 99.2082 73.8103 98.7147C73.8103 98.2212 76.2701 95.7537 76.7621 94.2731C77.254 92.7926 77.254 90.3251 77.746 88.351C78.1396 86.7718 77.91 86.048 77.746 85.8835C77.746 85.5545 77.8444 84.6991 78.2379 83.9095C78.7299 82.9224 80.2058 81.4419 80.2058 80.9484C80.2058 80.4549 80.6977 77.4938 81.1897 77.4938C81.6817 77.4938 82.1736 77.0003 82.6656 77.0003C83.1576 77.0003 83.6495 77.4938 84.1415 77.4938C84.535 77.4938 88.5691 73.8748 90.537 72.0653C91.0289 71.9007 92.2096 71.5717 92.9968 71.5717C93.9807 71.5717 94.4727 71.5717 94.4727 69.5977C94.4727 67.6237 94.4727 65.6496 93.9807 64.6626C93.4887 63.6756 95.4566 61.7016 96.4405 61.2081C97.4244 60.7146 98.4084 60.221 98.4084 59.234C98.4084 58.247 98.4084 56.7665 98.9003 56.7665C99.2939 56.7665 100.048 57.4245 100.376 57.7535C100.54 57.7535 100.868 57.5561 100.868 56.7665C100.868 55.7795 101.36 54.7924 101.852 54.7924C102.344 54.7924 103.82 54.7924 104.312 54.7924C104.804 54.7924 105.788 55.286 106.28 55.286C106.772 55.286 107.756 54.7924 108.248 54.7924C108.74 54.7924 110.707 54.7924 110.707 54.2989C110.707 53.8054 111.691 52.3249 112.183 52.3249C112.675 52.3249 113.659 51.8314 114.151 50.8444C114.643 49.8574 115.135 49.8574 114.643 49.3639C114.151 48.8703 113.167 47.8833 113.659 47.3898C114.151 46.8963 115.135 46.8963 115.627 46.8963C116.119 46.8963 116.611 46.4028 116.611 45.9093C116.611 45.4158 117.595 44.9223 118.087 44.9223C118.579 44.9223 119.071 44.4288 119.563 43.9353C120.055 43.4417 120.055 42.4547 120.547 42.4547C120.94 42.4547 121.367 42.7837 121.531 42.9482C121.695 43.2772 122.121 43.9353 122.514 43.9353C123.006 43.9353 123.99 43.9353 123.99 43.4417C123.99 42.9482 123.99 42.4547 123.006 41.4677C122.023 40.4807 121.531 39.9872 120.547 39.4937C119.759 39.0989 118.907 39.3292 118.579 39.4937C118.087 39.6582 117.005 39.9872 116.611 39.9872C116.119 39.9872 113.659 39.9872 112.675 39.4937C111.691 39.0002 110.707 38.5067 110.215 38.0132C109.822 37.6183 108.412 37.5196 107.756 37.5196C106.936 37.3551 105.197 36.8287 104.804 36.0391C104.312 35.0521 103.82 34.0651 103.82 33.5716C103.82 33.0781 103.328 32.5846 102.344 32.5846C101.557 32.5846 100.704 31.9265 100.376 31.5975C100.376 31.5975 100.179 31.5975 99.3923 31.5975C98.4084 31.5975 97.4244 31.5975 96.9325 31.5975C96.4405 31.5975 96.9325 31.5975 96.9325 30.6105C96.9325 29.6235 96.9325 28.143 96.4405 27.156C96.0469 26.3663 94.6367 25.5109 93.9807 25.1819C93.6527 24.3594 93.0952 22.4183 93.4887 21.2339C93.9807 19.7533 94.4727 19.2598 94.9646 19.2598C95.4566 19.2598 96.9325 18.7663 96.9325 18.2728C96.9325 17.878 97.2605 16.7923 97.4244 16.2988C97.9164 15.8053 98.9003 14.7195 98.9003 14.3247C98.9003 13.8312 98.9003 12.8442 98.4084 12.3507C97.9164 11.8572 95.9486 10.8702 94.9646 10.8702C94.1775 10.8702 92.6688 10.8702 92.0129 10.8702C91.3569 11.1992 89.9466 11.8572 89.5531 11.8572C89.0611 11.8572 88.0772 11.8572 87.5852 11.3637C87.0932 10.8702 87.0932 9.38965 86.1093 9.38965C85.3222 9.38965 83.8135 9.38965 83.1576 9.38965C82.8296 9.38965 82.0752 9.48835 81.6817 9.88316C81.1897 10.3767 79.7138 10.3767 78.7299 9.88316C77.746 9.38965 76.7621 7.90912 76.2701 7.90912C75.7781 7.90912 72.8264 7.41561 72.8264 6.4286C72.8264 5.44158 72.3344 4.45456 71.8424 3.96105C71.3505 3.46754 68.8907 1 68.3987 1C68.0051 1 67.5788 1 67.4148 1Z" stroke="black"/>
</svg>
