<svg width="278" height="315" viewBox="0 0 278 315" fill="none" xmlns="http://www.w3.org/2000/svg">
<path d="M9.50003 314.5L162 0.5H202V192.5L162 155V76.5L112.5 183H162V164.5L202 204V250.5H162L200 220V207L162 239V220H98L76.5 268L89.5 275.5C95.5 280.167 113.2 289.5 136 289.5C164.5 289.5 187 283 206 270C225 257 244.5 232.5 251 211C257.5 189.5 258 164 251 143.5C244 123 237.76 105.395 216.5 90C202 79.5 185 72.5 165 68C146.846 63.9154 128.5 61.5 112.5 64C96.5 66.5 77 75.5 65.5 86.5C54 97.5 44.5 104.5 36.5 122.5C28.5 140.5 25 152 25 167.5C25 183 25.5 200.5 31 215C36.5 229.5 36.5 221.5 35 224C33.8 226 26.5 241.167 23 248.5C18.3334 242.167 8.20003 225.8 5.00003 211C1.00003 192.5 0.500027 172 1.00003 159.5C1.50003 147 9 124.5 16 110.5C23 96.5 33.5 83.5 43 75C52.5 66.5 68 56 81 50.5C94 45 110 39.5 123.5 38C137 36.5 157 39 170 42.5C183 46 208.5 54.5 218.5 62.5C228.5 70.5 243 83 251 96C259 109 264.5 115.5 269.5 131C274.5 146.5 277 157 277 170C277 183 276.5 198 273 211C269.5 224 260 246 251 258C242 270 232 281.5 217 290.5C202 299.5 193 305.5 172 309C151 312.5 138 314 118 310C98 306 87.5 301 85 299.5C82.5 298 79.5 297.5 80 296.5C80.4 295.7 86.5 283.5 89.5 277.5L76 270L55.5 314.5H9.50003Z" stroke="black"/>
</svg>
