<svg width="233" height="321" viewBox="0 0 233 321" fill="none" xmlns="http://www.w3.org/2000/svg">
<path d="M156.023 145.908C158.627 148.512 159.668 149.553 160.71 151.116C161.752 152.678 163.835 154.761 163.835 155.802C163.835 156.844 163.314 158.927 164.356 159.447C165.397 159.968 167.48 161.01 168.001 161.01C168.522 161.01 170.084 163.092 168.001 163.092C165.918 163.092 165.397 163.613 164.356 164.134C163.314 164.655 158.627 166.217 157.064 166.217C155.502 166.217 150.294 166.217 147.169 164.655C144.044 163.092 139.878 160.489 138.315 157.364C136.753 154.24 135.711 152.157 134.67 150.595C133.628 149.033 131.545 149.553 131.545 146.95C131.545 144.346 129.982 144.346 131.545 141.743C133.107 139.139 137.274 134.452 138.315 132.89C139.357 131.328 141.44 125.6 144.565 125.6C147.69 125.6 153.939 125.6 156.023 127.683C158.106 129.766 160.71 131.328 160.71 133.411C160.71 135.494 161.231 136.014 160.71 137.056C160.189 138.097 158.627 141.222 158.627 141.743C158.627 142.263 156.023 142.263 154.46 142.263C152.898 142.263 153.419 142.784 151.335 143.305C149.252 143.825 145.086 143.305 143.523 142.263C141.961 141.222 139.357 139.66 138.836 137.577C138.315 135.494 138.836 129.766 139.357 128.724C139.878 127.683 146.127 126.121 146.648 124.038C147.169 121.955 144.044 120.393 146.127 119.351C148.211 118.31 154.981 118.31 157.064 118.31C159.148 118.31 167.48 118.31 170.084 118.83C172.689 119.351 181.542 120.913 183.625 122.475C185.709 124.038 185.709 125.6 187.792 127.162C189.875 128.724 191.437 129.245 193 130.807C194.562 132.369 195.604 135.494 197.166 136.014C198.729 136.535 200.291 137.056 198.729 137.577C197.166 138.097 195.604 137.056 194.562 137.577C193.521 138.097 190.917 138.097 189.875 139.139C188.833 140.18 182.584 142.263 181.542 142.263C180.501 142.263 177.376 143.305 173.209 143.305C169.043 143.305 165.918 142.784 163.314 142.263C160.71 141.743 155.502 139.139 153.94 138.097C152.377 137.056 145.086 128.724 145.086 127.683C145.086 126.641 144.565 125.6 145.086 124.038C145.607 122.475 146.127 117.789 147.169 116.227C148.211 114.665 148.731 110.499 151.335 109.457C153.94 108.416 154.981 106.854 157.585 106.333C160.189 105.812 165.397 105.291 167.48 105.812C169.564 106.333 174.251 108.937 175.293 111.019C176.334 113.102 176.855 114.144 176.334 115.185C175.813 116.227 176.334 118.31 175.293 118.31C174.251 118.31 173.209 117.789 171.647 118.31C170.084 118.83 166.439 119.351 165.918 120.393C165.397 121.434 165.918 122.996 163.314 122.996C160.71 122.996 154.46 122.996 153.419 122.475C152.377 121.955 148.211 121.793 147.69 120.393C147.169 118.992 147.169 111.019 148.731 109.978C150.294 108.937 153.419 106.333 156.544 105.291C159.668 104.25 170.084 101.646 173.209 101.126C176.334 100.605 184.667 102.167 187.792 103.729C190.917 105.291 196.646 108.416 198.729 110.499C200.812 112.582 203.937 115.706 206.541 116.227C209.145 116.747 212.27 117.789 212.791 119.872C213.311 121.955 213.832 125.079 213.311 126.121C212.791 127.162 214.353 128.724 211.749 127.162C209.145 125.6 209.145 125.079 206.541 124.558C203.937 124.038 202.895 124.038 200.812 124.038C198.729 124.038 194.042 123.517 193.521 124.038C193 124.558 189.354 125.079 187.792 124.558C186.229 124.038 181.542 124.558 178.417 124.038C175.293 123.517 170.605 125.079 168.522 124.038C166.439 122.996 160.189 122.475 157.064 121.955C153.94 121.434 147.69 120.913 148.211 117.268C148.731 113.623 153.94 107.895 152.377 105.291C150.815 102.688 147.69 100.084 149.252 96.439C150.815 92.7939 153.94 87.0658 158.627 84.9829C163.314 82.9 172.168 77.1719 175.293 75.089C178.417 73.0061 181.542 69.8817 184.667 71.4439C187.792 73.0061 190.917 71.4439 193 70.9232C195.083 70.4024 195.604 71.4439 196.125 70.4024C196.646 69.361 196.646 71.9646 196.125 73.0061C195.604 74.0475 195.604 77.1719 194.562 79.7756C193.521 82.3792 191.437 87.5865 189.354 89.1487C187.271 90.7109 181.021 96.9597 178.938 98.0012C176.855 99.0426 176.334 99.5633 174.251 100.084C172.168 100.605 155.502 108.416 153.419 105.291C151.335 102.167 146.648 97.4804 147.69 91.7524C148.731 86.0244 150.294 81.8585 153.419 78.7341C156.544 75.6097 159.148 72.4853 161.752 71.4439C164.356 70.4024 168.522 68.3195 170.605 68.3195C172.689 68.3195 173.73 69.361 174.251 68.3195C174.772 67.278 176.855 64.6744 177.897 64.6744C178.938 64.6744 179.459 64.6744 179.98 64.1537C180.501 63.6329 182.063 62.5915 182.063 64.1537C182.063 65.7159 182.584 67.278 181.021 67.7988C179.459 68.3195 178.417 67.7988 177.897 68.8402C177.376 69.8817 173.73 74.0475 173.73 74.5683C173.73 75.089 149.773 94.8768 149.252 93.8353C148.731 92.7939 145.607 91.2317 146.648 89.1487C147.69 87.0658 150.294 85.5036 147.69 83.9414C145.086 82.3792 139.878 81.3378 141.44 77.1719C142.69 73.8393 144.391 70.2289 145.086 68.8402C148.211 61.7236 154.877 47.0737 156.544 45.4074C158.627 43.3244 163.314 36.5549 168.522 34.472C173.73 32.3891 175.813 30.8269 177.376 30.3062C178.626 29.8896 182.063 30.1326 183.625 30.3062C183.625 31.8684 183.625 35.4093 183.625 37.0757C183.625 39.1586 181.021 47.4903 181.021 49.0525C181.021 50.6147 178.417 59.4671 177.376 61.0293C176.542 62.279 174.251 66.063 173.209 67.7988C165.397 75.089 149.356 89.0446 147.69 86.5451C145.607 83.4207 137.795 78.7341 136.232 75.089C134.67 71.4439 131.545 70.4024 132.066 65.7159C132.586 61.0293 133.107 56.3427 133.107 54.7805C133.107 53.2183 132.586 45.4074 136.232 41.2415C139.878 37.0757 141.44 31.8684 143.523 30.8269C145.607 29.7854 149.252 26.1403 150.815 25.6196C152.377 25.0989 152.377 29.2647 153.419 30.8269C154.46 32.3891 154.46 33.9513 155.502 36.0342C156.544 38.1171 156.544 41.7622 156.544 42.8037C156.544 43.8452 157.064 49.0525 155.502 51.6561C153.94 54.2598 148.731 64.6744 148.211 65.7159C147.69 66.7573 145.086 75.6097 143.523 77.1719C141.961 78.7341 140.919 79.7756 138.836 77.1719C136.753 74.5683 129.462 69.361 128.941 67.7988C128.42 66.2366 123.212 67.278 124.774 64.1537C126.337 61.0293 127.899 60.5085 128.42 57.9049C128.941 55.3012 128.941 50.0939 129.462 48.5317C129.982 46.9696 129.982 43.8452 130.503 41.2415C131.024 38.6379 129.982 36.5549 131.545 34.472C133.107 32.3891 135.19 28.744 139.357 27.1818C143.523 25.6196 144.565 25.6196 147.69 25.0989C150.815 24.5781 155.502 25.0989 157.585 24.5781C159.668 24.0574 164.876 23.0159 165.918 23.0159C166.96 23.0159 168.001 22.4952 165.918 24.5781C163.835 26.6611 163.314 29.2647 162.272 30.8269C161.231 32.3891 158.627 37.5964 157.585 38.6379C156.544 39.6793 144.044 76.6512 139.357 75.6097C134.67 74.5683 133.107 73.0061 127.378 68.8402C121.65 64.6744 123.212 64.6744 119.566 63.6329C115.921 62.5915 112.275 65.1951 110.192 61.0293C108.109 56.8634 106.546 51.1354 107.588 46.9696C108.629 42.8037 111.233 31.3476 113.317 28.2232C115.4 25.0989 118.525 19.3708 119.046 17.2879C119.566 15.205 120.087 9.47695 121.65 8.43549C123.212 7.39403 126.858 3.22818 126.337 5.83183C125.816 8.43549 124.254 12.0806 125.295 14.1635C126.337 16.2464 128.42 21.4537 128.941 23.0159C129.462 24.5781 130.503 31.3476 130.503 32.3891C130.503 33.4306 131.545 37.0757 131.545 38.6379C131.545 40.2001 128.42 58.4256 126.337 60.5085C124.254 62.5915 119.046 66.7573 114.358 64.6744C109.671 62.5915 106.025 59.9878 105.505 57.3842C104.984 54.7805 104.463 43.3244 105.505 39.6793C106.546 36.0342 108.629 25.0989 112.275 21.9745C115.921 18.8501 116.652 16.7672 118.004 16.2464C119.356 15.7257 125.295 10.5184 129.462 9.47695C133.628 8.43549 136.753 7.39403 137.795 8.43549C138.836 9.47695 139.878 9.47695 141.44 9.47695C143.003 9.47695 141.961 10.5184 140.399 11.5599C138.836 12.6013 139.878 16.2464 138.836 17.2879C137.795 18.3294 138.315 23.0159 136.232 25.6196C134.149 28.2232 133.494 31.3476 132.066 32.3891C130.637 33.4306 128.941 62.0707 121.65 62.0707C114.358 62.0707 104.984 56.3427 103.421 57.9049C101.859 59.4671 97.6925 67.7988 95.6093 60.5085C93.526 53.2183 91.9636 49.5732 91.4428 45.4074C90.922 41.2415 89.8804 32.9098 90.4012 28.2232C90.922 23.5367 90.922 15.7257 94.0469 13.6428C97.1717 11.5599 100.297 8.95622 101.859 6.87329C103.421 4.79037 110.192 -0.937665 110.192 1.66599C110.192 4.26964 109.15 7.39403 110.192 8.43549C111.233 9.47695 108.629 9.99767 108.109 13.1221C107.588 16.2464 107.588 25.0989 107.067 28.744C106.546 32.3891 106.025 46.9695 106.025 50.0939C106.025 53.2183 109.671 61.0293 104.463 59.4671C99.2549 57.9049 92.4845 58.4256 91.4428 59.4671C90.4012 60.5085 88.318 66.7573 84.6724 62.0707C81.0267 57.3842 76.3395 51.1354 74.7771 46.9696C73.2146 42.8037 71.1314 34.472 71.6522 28.2232C72.173 21.9745 73.7354 14.6843 74.2562 12.6013C74.7771 10.5184 77.9019 4.26964 79.9851 4.26964C82.0683 4.26964 86.2348 11.0391 86.7556 12.6013C87.2764 14.1635 88.318 18.3294 88.8388 21.9745C89.3596 25.6196 90.922 33.9513 91.4428 36.0342C91.9636 38.1171 94.0469 50.0939 94.0469 51.6561C94.0469 53.2183 94.5452 59.9878 92.4844 60.5085C90.4237 61.0293 83.1099 60.5085 81.5475 62.0707C79.9851 63.6329 82.0683 69.361 76.8603 65.7159C71.6522 62.0707 63.8401 56.3427 62.7985 53.2183C61.7569 50.0939 56.0281 46.4488 58.6321 41.2415C61.2361 36.0342 60.7153 36.0342 61.7569 32.3891C62.7985 28.744 62.7985 28.744 62.7985 27.1818C62.7985 25.6196 61.2361 21.9745 62.7985 21.9745C64.3609 21.9745 67.4858 24.0574 68.5274 25.6196C69.569 27.1818 73.2146 29.2647 73.7354 31.8684C74.2562 34.472 79.9851 46.9695 79.9851 50.0939C79.9851 53.2183 88.318 66.2366 83.1099 64.1537C77.9019 62.0707 78.9435 67.278 76.8603 68.8402C74.7771 70.4024 72.173 74.5683 67.4858 74.5683C62.7985 74.5683 62.2777 75.6097 58.6321 73.0061C54.9864 70.4024 48.216 65.1951 46.6536 63.6329C45.0912 62.0707 43.5287 57.9049 41.9663 54.7805C40.4039 51.6561 38.3207 46.4488 36.2375 43.8452C34.1542 41.2415 29.9878 36.5549 31.0294 34.472C32.071 32.3891 34.1543 33.4306 40.4039 33.4306C46.6536 33.4306 53.9449 36.0342 57.0697 38.6379C60.1945 41.2415 68.5274 48.5317 69.569 50.0939C70.6106 51.6561 75.8187 57.9049 76.8603 61.0293C77.9019 64.1537 75.8187 68.8402 72.6938 70.9232C69.569 73.0061 64.361 74.5683 64.8818 77.1719C65.4026 79.7756 68.0066 82.9 64.8818 83.9414C61.7569 84.9829 59.6737 85.5036 55.5073 83.9414C51.3408 82.3792 42.4871 78.7341 40.4039 77.1719C38.3207 75.6097 32.071 72.4853 28.4254 70.4024C24.7797 68.3195 23.2173 66.7573 20.6133 66.7573C18.0093 66.7573 16.4469 69.361 15.4052 66.7573C14.3636 64.1537 15.4052 62.5915 16.4469 61.0293C17.4885 59.4671 24.2589 57.9049 25.8214 57.9049C27.3838 57.9049 35.7167 56.8634 37.2791 57.3842C38.8415 57.9049 44.0495 58.9464 46.6536 60.5085C49.2576 62.0707 63.8402 68.8402 64.8818 70.9232C65.9234 73.0061 64.8818 76.1305 63.8402 78.7341C62.7985 81.3378 58.6321 87.0658 60.1945 87.5865C61.7569 88.1073 62.2777 92.2731 60.1945 92.7938C58.1113 93.3146 54.4657 93.3146 55.5073 95.3975C56.5489 97.4804 60.1945 100.084 54.9865 99.5633C49.7784 99.0426 43.5287 96.9597 41.9663 95.3975C40.4039 93.8353 28.9462 90.1902 27.3838 87.5865C25.8214 84.9829 19.0509 80.817 18.5301 79.7756C18.0093 78.7341 14.3636 74.0475 15.4052 71.4439C16.4469 68.8402 18.0093 65.7159 23.2173 66.7573C28.4254 67.7988 58.6321 85.5036 58.6321 86.5451C58.6321 87.5865 57.5905 92.2731 57.0697 95.3975C56.5489 98.5219 53.9449 98.5219 55.5073 101.126C57.0697 103.729 59.1529 102.688 59.6737 106.854C60.1945 111.019 58.6321 108.416 57.0697 111.019C55.5073 113.623 56.0281 116.227 55.5073 118.31C54.9865 120.393 57.0697 121.955 52.9032 122.996C48.7368 124.038 48.7368 124.038 43.0079 122.996C37.2791 121.955 26.3422 119.351 24.7797 119.351C23.2173 119.351 14.8844 114.665 12.8012 113.102C10.718 111.54 3.94753 105.291 2.90592 103.208C1.86431 101.126 0.301894 98.5219 1.3435 98.0012C2.38512 97.4804 4.98913 97.4804 7.59316 97.4804C10.1972 97.4804 19.5717 95.9182 21.1341 95.9182C22.6965 95.9182 27.3838 95.3975 30.5086 95.9182C33.6334 96.439 38.8415 95.9182 40.4039 96.439C41.9663 96.9597 47.1744 96.9597 50.2992 97.4804C53.424 98.0012 57.0697 99.4763 57.0697 101.126C57.0697 102.775 56.5489 107.895 56.5489 108.936C56.5489 109.978 57.5905 116.227 57.0697 117.789C56.5489 119.351 60.1945 122.475 55.5073 124.038C50.82 125.6 51.3408 126.121 48.216 126.641C45.0912 127.162 36.2375 128.204 35.1958 128.204C34.1542 128.204 31.0294 127.162 28.4254 125.6C25.8213 124.038 24.259 122.475 24.7797 121.434C25.3005 120.393 27.9046 118.31 28.9462 118.31C29.9878 118.31 34.675 118.31 38.3207 119.351C41.9663 120.393 47.1744 120.913 48.7368 121.434C50.2992 121.955 53.4241 120.393 55.5073 122.475C57.5905 124.558 58.1113 123.517 59.6737 126.641C61.2361 129.766 60.1945 130.807 61.2361 132.89C62.2777 134.973 60.7153 137.577 62.2777 137.577C63.8402 137.577 64.8818 138.097 64.8818 140.18C64.8818 142.263 63.8401 143.305 62.2777 144.867C60.7153 146.429 53.9448 150.595 51.3408 150.595C48.7368 150.595 41.9663 153.199 39.3623 153.199C36.7583 153.199 28.4254 154.24 24.7797 153.199C21.1341 152.157 15.926 152.678 14.3636 150.595C12.8012 148.512 4.46833 143.305 7.59316 143.305C10.718 143.305 13.8428 140.701 15.4052 140.18C16.9677 139.66 21.6549 139.139 23.2173 137.577C24.7797 136.014 26.3422 134.452 28.4254 132.89C30.5086 131.328 32.071 130.807 34.1542 129.766C36.2375 128.724 47.6952 125.6 48.216 125.6C48.7368 125.6 53.9448 124.558 56.0281 126.641C58.1113 128.724 60.7153 129.766 61.7569 130.807C62.7985 131.849 61.7569 134.973 63.3193 136.014C64.8818 137.056 66.4442 139.139 66.965 140.18C67.4858 141.222 68.0066 141.742 68.0066 144.346C68.0066 146.95 68.0066 146.429 66.965 148.512C65.9234 150.595 62.7985 152.157 61.2361 154.24C59.6737 156.323 59.1529 160.489 56.0281 161.53C52.9032 162.572 49.2576 167.779 45.612 168.3C41.9663 168.821 40.4039 170.383 38.3207 169.341C36.2375 168.3 32.5918 166.738 31.5502 165.175C30.5086 163.613 26.3422 162.572 24.7797 162.572C23.2173 162.572 21.1341 163.613 19.0509 162.572C16.9677 161.53 17.4885 161.53 15.926 161.53C14.3636 161.53 14.8844 160.489 13.8428 162.051C12.8012 163.613 13.8428 165.696 12.8012 164.655C11.7596 163.613 10.718 161.01 10.718 159.968C10.718 158.927 10.718 158.406 11.7596 157.364C12.8012 156.323 14.3636 153.199 15.4052 153.199C16.4469 153.199 19.5717 151.116 20.6133 150.074C21.6549 149.033 26.3422 147.991 28.9462 147.991C31.5502 147.991 38.8415 145.908 40.4039 145.908C41.9663 145.908 46.1328 144.346 48.216 144.346C50.2992 144.346 53.9449 142.784 57.0697 142.263C60.1945 141.743 60.1321 141.222 62.2777 141.743C64.4234 142.263 64.8818 143.305 65.9234 143.305C66.965 143.305 69.0482 146.95 70.6106 146.95C72.173 146.95 73.2146 148.512 74.7771 149.553C76.3395 150.595 76.8603 152.157 76.3395 154.24C75.8187 156.323 75.8187 158.927 75.2979 159.447C74.7771 159.968 75.2979 163.613 74.7771 164.655C74.2563 165.696 73.2146 169.341 72.6938 169.341C72.173 169.341 71.1314 172.986 69.569 173.507C68.0066 174.028 65.9234 173.507 63.8401 175.59C61.7569 177.673 58.1113 179.235 56.0281 180.797C53.9448 182.36 52.3824 183.401 50.2992 185.484C48.216 187.567 46.1328 189.129 45.612 190.17C45.0912 191.212 43.5287 191.733 41.9663 192.774C40.4039 193.816 42.4871 193.295 39.3623 194.857C36.2375 196.419 35.7167 199.023 34.675 195.378C33.6334 191.733 33.1126 189.65 33.6334 187.567C34.1542 185.484 34.1542 183.401 35.1958 180.797C36.2375 178.194 36.2375 177.152 38.3207 174.549C40.4039 171.945 41.9663 168.3 43.0079 166.217C44.0495 164.134 43.0079 162.572 45.612 159.968C48.216 157.364 49.2576 154.761 51.8616 152.678C54.4656 150.595 60.7153 146.95 62.2777 146.95C63.8401 146.95 61.2361 144.867 65.4026 146.429C69.569 147.991 70.6106 148.512 72.6938 150.595C74.7771 152.678 76.8603 154.24 78.9435 154.24C81.0267 154.24 84.6724 154.24 87.2764 154.24C89.8804 154.24 94.0469 152.157 92.4844 154.24C90.922 156.323 87.2764 158.406 85.1932 161.53C83.1099 164.655 80.5059 167.258 78.9435 170.383C77.3811 173.507 76.8603 177.673 75.2979 179.235C73.7354 180.797 71.6522 183.401 71.6522 185.484C71.6522 187.567 69.569 189.65 69.0482 192.253C68.5274 194.857 66.965 196.94 66.965 197.981C66.965 199.023 66.4442 202.147 65.9234 203.709C65.4026 205.272 64.8818 205.272 64.8818 208.396C64.8818 211.52 67.4858 216.728 64.8818 214.124C62.2777 211.52 60.7153 212.041 60.7153 209.958C60.7153 207.875 60.7153 206.313 60.7153 203.709C60.7153 201.106 61.2361 195.378 61.7569 192.774C62.2777 190.17 63.3193 187.046 63.3193 185.484C63.3193 183.922 66.965 177.673 68.0066 176.631C69.0482 175.59 70.6106 169.341 71.1314 167.779C71.6522 166.217 75.2979 162.051 76.8603 160.489C78.4227 158.927 82.0683 156.844 85.1932 156.323C88.318 155.802 92.4844 155.282 94.0469 155.282C95.6093 155.282 97.6925 154.761 98.7341 157.364C99.7757 159.968 100.297 160.489 98.7341 162.572C97.1717 164.655 96.1301 167.258 95.0885 168.3C94.0469 169.341 89.8804 174.549 87.7972 177.152C85.714 179.756 82.0683 184.442 79.9851 186.005C77.9019 187.567 75.2979 189.65 74.7771 190.17C74.2563 190.691 70.6106 193.816 70.0898 194.336C69.569 194.857 64.8817 201.627 64.8818 195.898C64.8818 190.17 65.4026 188.608 64.8818 187.567C64.361 186.525 61.7569 180.797 62.2777 179.235C62.7985 177.673 64.8818 172.466 65.4026 171.424C65.9234 170.383 69.569 165.696 70.0898 165.175C70.6106 164.655 74.7771 159.447 76.8603 158.406C78.9435 157.364 81.5475 156.844 83.1099 156.323C84.6724 155.802 94.0469 153.199 96.1301 154.24C98.2133 155.282 99.7757 158.406 101.338 158.406C102.901 158.406 106.025 158.406 107.067 159.968C108.109 161.53 111.754 162.051 111.754 165.175C111.754 168.3 110.192 171.945 111.754 174.549C113.317 177.152 113.837 183.922 112.796 187.567C111.754 191.212 109.15 195.898 107.067 197.981C104.984 200.064 104.984 204.23 101.338 206.313C97.6925 208.396 95.6093 209.958 92.4844 209.958C89.3596 209.958 86.7556 213.603 87.2764 209.958C87.7972 206.313 88.318 204.751 87.7972 202.668C87.2764 200.585 87.2764 196.419 86.2348 194.336C85.1932 192.253 85.1932 186.005 86.2348 183.922C87.2764 181.839 86.7556 177.673 87.2764 175.59C87.7972 173.507 92.4844 169.862 95.0885 164.655C97.6925 159.447 95.0885 156.323 99.7757 155.282C104.463 154.24 111.754 150.595 112.796 149.553C113.837 148.512 116.962 146.429 120.087 146.429C123.212 146.429 126.858 145.908 127.378 150.595C127.899 155.282 126.337 159.447 124.774 161.01C123.212 162.572 120.608 164.134 119.046 164.134C117.483 164.134 115.921 164.134 114.879 164.655C113.837 165.175 112.275 170.903 110.192 169.341C108.109 167.779 107.067 167.258 104.984 166.217C102.901 165.175 100.297 162.572 101.338 161.01C102.38 159.447 103.942 156.323 104.984 156.323C106.025 156.323 107.588 154.761 107.588 154.24C107.588 153.719 107.588 152.157 108.629 151.116C109.671 150.074 118.004 144.346 120.608 144.867C123.212 145.388 127.899 145.388 128.42 144.867C128.941 144.346 131.545 145.908 132.586 146.95C133.628 147.991 133.642 152.157 135.19 153.199C136.739 154.24 140.399 157.885 141.44 158.927C142.482 159.968 147.169 164.134 147.69 167.258C148.211 170.383 149.773 172.986 149.773 176.631C149.773 180.277 149.773 184.442 149.252 184.963C148.731 185.484 147.69 187.046 147.69 188.608C147.69 190.17 148.731 192.774 148.211 194.336C147.69 195.898 146.648 195.898 146.127 197.981C145.607 200.064 144.565 200.585 144.565 202.147C144.565 203.709 145.086 204.751 143.523 204.23C141.961 203.709 142.482 202.147 141.44 201.627C140.399 201.106 140.399 201.106 138.836 199.544C137.586 198.294 135.538 194.857 134.67 193.295C134.149 192.774 132.795 191.42 131.545 190.17C129.982 188.608 126.858 184.442 125.816 182.88C124.774 181.318 120.608 174.549 120.608 172.466C120.608 170.383 120.087 167.258 120.087 166.217C120.087 165.175 119.566 158.406 120.608 157.364C121.65 156.323 125.295 153.199 122.691 150.595C120.087 147.991 111.233 151.636 110.192 152.678C109.15 153.719 112.275 153.719 112.796 156.323C113.212 158.406 114.358 161.357 114.879 162.572C114.879 163.44 114.879 165.696 114.879 167.779C114.879 170.383 114.879 172.986 114.879 175.59C114.879 178.194 113.317 180.277 114.879 183.922C116.441 187.567 119.046 186.005 117.483 188.608C115.921 191.212 116.962 193.295 114.879 192.774C112.796 192.253 113.317 187.046 111.754 185.484C110.192 183.922 109.671 180.277 109.15 178.714C108.629 177.152 107.067 173.507 107.067 171.424C107.067 169.341 104.984 165.696 106.025 164.134C107.067 162.572 108.629 154.761 110.192 157.364C111.754 159.968 115.921 164.134 115.921 169.341C115.921 174.549 114.358 180.277 115.921 182.88C117.483 185.484 117.483 187.046 120.608 188.608C123.733 190.17 125.295 194.336 128.42 194.336C131.545 194.336 131.545 192.253 132.586 195.898C133.628 199.544 139.878 210.479 136.232 208.396C132.586 206.313 133.107 202.147 131.545 204.751C129.982 207.355 131.024 209.958 128.42 207.355C125.816 204.751 124.774 205.272 124.774 208.396C124.774 211.52 124.774 214.645 124.774 215.166C124.774 215.582 121.997 224.018 120.608 228.184C120.261 229.572 119.775 232.454 120.608 232.87C121.65 233.391 123.212 233.912 125.816 233.912C128.42 233.912 132.066 233.912 133.628 232.87C135.19 231.829 137.274 231.829 138.836 231.829C140.399 231.829 144.044 230.787 144.565 232.87C145.086 234.953 148.731 238.078 149.252 245.889C149.773 253.7 151.335 264.635 151.335 266.197C151.335 267.759 151.335 275.57 151.335 277.132C151.335 278.382 152.03 283.555 152.377 285.985C152.724 287.547 153.21 291.088 152.377 292.754C151.335 294.837 150.815 296.399 149.252 296.92C147.69 297.441 148.211 300.045 147.169 294.317C146.127 288.589 145.607 285.464 143.523 281.298C141.44 277.132 141.44 276.612 138.836 273.487C136.232 270.363 134.67 266.197 131.545 265.156C128.42 264.114 123.733 263.593 120.608 263.593C117.483 263.593 116.962 262.031 114.879 263.593C112.796 265.156 111.233 265.156 110.192 267.239C109.15 269.322 106.546 271.404 103.942 272.446C101.338 273.487 96.1301 271.404 93.5261 272.446C91.4428 273.279 89.5332 275.917 88.8388 277.132C88.4916 277.48 87.4847 278.799 86.2348 281.298C84.6724 284.423 86.2348 287.026 83.6308 287.547C81.0267 288.068 78.4227 288.589 76.8603 289.109C75.2979 289.63 73.7354 289.63 71.6522 292.754C69.569 295.879 64.8818 298.482 64.8818 299.524C64.8818 300.565 60.7153 305.252 59.6737 306.814C58.6321 308.376 57.5905 312.021 56.0281 313.584C54.4656 315.146 53.424 322.957 52.9032 318.791C52.3824 314.625 56.0281 310.459 56.0281 309.418C56.0281 308.376 59.6737 303.69 59.6737 302.648C59.6737 301.815 63.4929 297.441 65.4026 295.358L76.8603 281.298C79.9851 278.695 86.2348 273.071 86.2348 271.404C86.2348 269.322 87.2764 267.239 89.8804 266.197C92.4844 265.156 99.7757 264.635 99.7757 262.552C99.7757 260.469 104.984 255.783 107.067 254.741C109.15 253.7 110.713 250.575 112.796 249.013C114.879 247.451 114.358 245.368 115.921 244.326C117.483 243.285 116.441 241.202 118.525 241.202C120.608 241.202 122.691 241.202 123.212 242.764C123.733 244.326 124.774 244.847 125.295 243.806C125.816 242.764 126.337 241.202 126.858 241.202C127.378 241.202 128.42 241.723 128.42 243.806C128.42 245.889 126.858 246.93 126.858 247.451C126.858 247.972 126.858 248.492 126.858 251.617C126.858 254.741 130.503 259.428 131.545 259.948C132.586 260.469 135.19 262.031 137.795 265.156C140.399 268.28 143.003 270.884 144.565 273.487C146.127 276.091 148.731 282.34 149.252 284.423C149.669 286.089 150.467 291.019 150.815 293.275C151.162 295.705 151.752 300.982 151.335 302.648C150.919 304.315 150.815 308.55 150.815 310.459V319.832H169.564C169.564 317.576 169.564 312.334 169.564 309.418C169.564 305.773 168.522 301.086 168.001 296.92C167.48 292.754 166.439 289.109 168.001 284.423C169.564 279.736 169.564 275.57 171.126 273.487C172.376 271.821 174.425 267.933 175.293 266.197C175.813 264.982 177.376 262.031 179.459 259.948C182.063 257.345 188.313 251.096 190.396 250.054C192.479 249.013 194.562 249.013 195.604 247.451C196.646 245.889 197.687 241.723 196.646 240.161C195.604 238.598 195.083 234.953 194.562 232.87C194.041 230.787 193 228.184 190.396 228.184C187.792 228.184 186.229 226.101 187.271 224.539C188.313 222.976 190.396 218.29 191.437 221.414C192.479 224.539 192.479 226.101 194.562 226.622C196.646 227.142 200.812 229.225 201.854 229.746C202.895 230.267 204.978 230.787 207.582 232.87C210.186 234.953 212.27 233.912 213.832 233.912C215.395 233.912 216.957 233.912 218.519 236.515C220.082 239.119 218.519 239.64 220.603 241.202C222.686 242.764 225.29 241.202 226.852 244.326C228.415 247.451 229.456 250.054 229.977 250.054C230.394 250.054 230.151 254.567 229.977 256.824L224.769 253.179L220.603 247.451C220.776 246.93 220.29 246.201 216.957 247.451C212.79 249.013 212.79 245.889 211.228 244.326C209.666 242.764 210.707 241.202 207.582 241.202C204.458 241.202 204.978 242.764 203.416 244.326C201.854 245.889 200.812 251.617 196.646 253.179C192.479 254.741 190.396 255.783 188.833 257.865C187.271 259.948 184.667 260.99 182.063 266.197C179.459 271.404 177.376 274.529 176.334 277.132C175.293 279.736 173.73 285.464 173.73 289.109C173.73 292.754 175.813 299.524 172.688 296.92C169.564 294.317 165.918 289.109 166.96 277.132C168.001 265.156 166.439 257.865 168.001 254.741C169.564 251.617 171.126 252.137 171.126 247.451C171.126 242.764 169.564 240.681 169.564 238.598C169.564 236.515 165.397 230.267 169.564 233.912C173.73 237.557 174.772 238.078 176.334 236.515C177.897 234.953 176.855 233.912 179.459 233.912C182.063 233.912 182.584 236.515 185.709 236.515C188.833 236.515 188.313 237.036 190.396 235.474C192.479 233.912 193.521 235.995 190.396 232.87C187.271 229.746 190.396 229.746 185.709 228.184C181.021 226.622 179.459 226.622 177.376 226.622C175.293 226.622 175.813 226.622 172.688 226.622C169.564 226.622 169.564 223.497 171.126 221.414C172.688 219.331 173.209 216.207 175.293 214.124C177.376 212.041 180.501 209.437 182.063 208.396C183.625 207.355 183.105 204.751 187.271 204.751C191.437 204.751 191.958 203.709 195.604 204.23C199.25 204.751 200.291 205.272 203.416 206.313C206.541 207.355 215.395 212.562 216.957 212.562C218.519 212.562 224.769 216.207 226.852 217.248C228.935 218.29 235.185 221.935 229.977 215.166C224.769 208.396 227.894 208.396 226.852 207.355C225.811 206.313 230.498 205.792 223.207 203.709C215.915 201.627 214.353 200.064 210.186 197.981C206.02 195.898 200.812 195.898 197.687 195.378C194.562 194.857 189.354 193.295 185.709 194.336C182.063 195.378 182.584 192.774 179.459 195.378C176.334 197.981 176.334 200.064 173.73 197.981C171.126 195.898 168.001 190.17 169.564 195.898C171.126 201.627 169.564 201.106 171.126 204.751C172.688 208.396 172.688 209.958 171.126 212.562C169.564 215.166 166.96 218.29 166.96 221.414C166.96 224.539 169.043 226.101 165.397 224.539C161.752 222.976 162.793 225.58 160.71 221.414C159.043 218.082 157.585 214.124 157.064 212.562C156.196 206.834 154.46 194.336 154.46 190.17C154.46 184.963 152.377 177.673 157.064 174.549C161.752 171.424 160.71 170.383 165.397 170.383C170.084 170.383 173.209 171.424 177.376 171.424C181.542 171.424 179.459 173.507 183.625 170.383C187.792 167.258 189.875 167.779 191.437 165.175C193 162.572 196.125 162.051 189.875 160.489C184.875 159.239 179.459 156.844 177.376 155.802C174.945 154.24 169.459 151.116 166.96 151.116C164.46 151.116 158.627 147.644 156.023 145.908Z" stroke="black"/>
</svg>
